HIERARCHY
ROOT hips
{
  OFFSET 0 10.6860622 2.3727825e-15
  CHANNELS 6 Xposition Yposition Zposition Yrotation Xrotation Zrotation
  JOINT leftUpperLeg
  {
    OFFSET 0.6642549969 -0.9402397400000004 0
    CHANNELS 3 Yrotation Xrotation Zrotation
    JOINT leftLowerLeg
    {
      OFFSET 0 -3.997221335632195 0
      CHANNELS 3 Yrotation Xrotation Zrotation
      JOINT leftFoot
      {
        OFFSET -0.13777839790000004 -4.6145792000000005 -0.22186036399999998
        CHANNELS 3 Yrotation Xrotation Zrotation
        JOINT leftToes
        {
          OFFSET -0.03777410834999995 -0.9130806927000008 0.85230013
          CHANNELS 3 Yrotation Xrotation Zrotation
          End Site
          {
            OFFSET -0.03777410834999995 -0.9130806927000008 0.85230013
          }
        }
      }
    }
  }
  JOINT rightUpperLeg
  {
    OFFSET -0.6642778626 -0.9402397400000004 0
    CHANNELS 3 Yrotation Xrotation Zrotation
    JOINT rightLowerLeg
    {
      OFFSET 0 -3.997221452859387 0
      CHANNELS 3 Yrotation Xrotation Zrotation
      JOINT rightFoot
      {
        OFFSET 0.1377926176 -4.6145792000000005 -0.22185782299999995
        CHANNELS 3 Yrotation Xrotation Zrotation
        JOINT rightToes
        {
          OFFSET 0.037780746850000047 -0.9130806927000008 0.85230167
          CHANNELS 3 Yrotation Xrotation Zrotation
          End Site
          {
            OFFSET 0.037780746850000047 -0.9130806927000008 0.85230167
          }
        }
      }
    }
  }
  JOINT spine
  {
    OFFSET 0 0.13988381660000015 0
    CHANNELS 3 Yrotation Xrotation Zrotation
    JOINT chest
    {
      OFFSET 0 0.6191039003973773 0
      CHANNELS 3 Yrotation Xrotation Zrotation
      JOINT upperChest
      {
        OFFSET 0 0.9855186130586943 0
        CHANNELS 3 Yrotation Xrotation Zrotation
        JOINT leftShoulder
        {
          OFFSET 0.1807663869 1.5087829790000005 0
          CHANNELS 3 Yrotation Xrotation Zrotation
          JOINT leftUpperArm
          {
            OFFSET 0.5985063006419806 0 0
            CHANNELS 3 Yrotation Xrotation Zrotation
            JOINT leftLowerArm
            {
              OFFSET 2.2993332369501065 0 0
              CHANNELS 3 Yrotation Xrotation Zrotation
              JOINT leftHand
              {
                OFFSET 2.395047042602395 0 0
                CHANNELS 3 Yrotation Xrotation Zrotation
                JOINT leftIndexProximal
                {
                  OFFSET 0.5766295810000004 0.04556643899499946 0.17265095988184
                  CHANNELS 3 Yrotation Xrotation Zrotation
                  JOINT leftIndexIntermediate
                  {
                    OFFSET 0.2957229000000008 -0.019352197700001517 -0.007932640616999987
                    CHANNELS 3 Yrotation Xrotation Zrotation
                    JOINT leftIndexDistal
                    {
                      OFFSET 0.19008243099999922 -0.012484908149998475 -0.002786250786000012
                      CHANNELS 3 Yrotation Xrotation Zrotation
                      End Site
                      {
                        OFFSET 0.19008243099999922 -0.012484908149998475 -0.002786250786000012
                      }
                    }
                  }
                }
                JOINT leftMiddleProximal
                {
                  OFFSET 0.5834975091000001 0.0524350405149987 0.02204081888183999
                  CHANNELS 3 Yrotation Xrotation Zrotation
                  JOINT leftMiddleIntermediate
                  {
                    OFFSET 0.33880573540000003 -0.019871473270000717 -0.00000971183179999946
                    CHANNELS 3 Yrotation Xrotation Zrotation
                    JOINT leftMiddleDistal
                    {
                      OFFSET 0.20676022730000088 -0.012221336379999448 0.0001471936708000235
                      CHANNELS 3 Yrotation Xrotation Zrotation
                      End Site
                      {
                        OFFSET 0.20676022730000088 -0.012221336379999448 0.0001471936708000235
                      }
                    }
                  }
                }
                JOINT leftLittleProximal
                {
                  OFFSET 0.5344154683999995 -0.012880921405001189 -0.24414037221816004
                  CHANNELS 3 Yrotation Xrotation Zrotation
                  JOINT leftLittleIntermediate
                  {
                    OFFSET 0.21758961730000093 -0.011650919939999227 0.011893592810000034
                    CHANNELS 3 Yrotation Xrotation Zrotation
                    JOINT leftLittleDistal
                    {
                      OFFSET 0.1475273964999999 -0.008152365682999818 0.006001092492999946
                      CHANNELS 3 Yrotation Xrotation Zrotation
                      End Site
                      {
                        OFFSET 0.1475273964999999 -0.008152365682999818 0.006001092492999946
                      }
                    }
                  }
                }
                JOINT leftRingProximal
                {
                  OFFSET 0.5799399463000003 0.026911854694997794 -0.12150566991816003
                  CHANNELS 3 Yrotation Xrotation Zrotation
                  JOINT leftRingIntermediate
                  {
                    OFFSET 0.26167887460000006 -0.013480186499999602 0.010996293000000053
                    CHANNELS 3 Yrotation Xrotation Zrotation
                    JOINT leftRingDistal
                    {
                      OFFSET 0.17667108799999987 -0.008990287899999228 0.0055541023999999065
                      CHANNELS 3 Yrotation Xrotation Zrotation
                      End Site
                      {
                        OFFSET 0.17667108799999987 -0.008990287899999228 0.0055541023999999065
                      }
                    }
                  }
                }
                JOINT leftThumbProximal
                {
                  OFFSET 0.11018806699999972 -0.09448718900500053 0.17047963138184
                  CHANNELS 3 Yrotation Xrotation Zrotation
                  JOINT leftThumbIntermediate
                  {
                    OFFSET 0.31062601459999983 -0.08126270900000132 0.15443142000000007
                    CHANNELS 3 Yrotation Xrotation Zrotation
                    JOINT leftThumbDistal
                    {
                      OFFSET 0.21627175790000086 -0.08833193599999878 0.018771167799999988
                      CHANNELS 3 Yrotation Xrotation Zrotation
                      End Site
                      {
                        OFFSET 0.21627175790000086 -0.08833193599999878 0.018771167799999988
                      }
                    }
                  }
                }
              }
            }
          }
        }
        JOINT neck
        {
          OFFSET 0 1.5463305265074576 0
          CHANNELS 3 Yrotation Xrotation Zrotation
          JOINT head
          {
            OFFSET 0 0.8456443600000344 0
            CHANNELS 3 Yrotation Xrotation Zrotation
            JOINT leftEye
            {
              OFFSET 0.30408573140000006 0.5104519199999995 0.1276382305
              CHANNELS 3 Yrotation Xrotation Zrotation
              End Site
              {
                OFFSET 0.30408573140000006 0.5104519199999995 0.1276382305
              }
            }
            JOINT rightEye
            {
              OFFSET -0.30409491089999996 0.5104519199999995 0.1276379445
              CHANNELS 3 Yrotation Xrotation Zrotation
              End Site
              {
                OFFSET -0.30409491089999996 0.5104519199999995 0.1276379445
              }
            }
            JOINT jaw
            {
              OFFSET -3.155239131000001e-7 -0.11984121820000082 0.60178107
              CHANNELS 3 Yrotation Xrotation Zrotation
              End Site
              {
                OFFSET -3.155239131000001e-7 -0.11984121820000082 0.60178107
              }
            }
          }
        }
        JOINT rightShoulder
        {
          OFFSET -0.1807303465 1.5087829790000005 0
          CHANNELS 3 Yrotation Xrotation Zrotation
          JOINT rightUpperArm
          {
            OFFSET -0.5985063796536958 0 0
            CHANNELS 3 Yrotation Xrotation Zrotation
            JOINT rightLowerArm
            {
              OFFSET -2.2993322059002854 0 0
              CHANNELS 3 Yrotation Xrotation Zrotation
              JOINT rightHand
              {
                OFFSET -2.395045314457259 0 0
                CHANNELS 3 Yrotation Xrotation Zrotation
                JOINT rightIndexProximal
                {
                  OFFSET -0.5764487688300002 0.0441371204405987 0.17361932004999997
                  CHANNELS 3 Yrotation Xrotation Zrotation
                  JOINT rightIndexIntermediate
                  {
                    OFFSET -0.29573011380000047 -0.01934826376999843 -0.007698921482999974
                    CHANNELS 3 Yrotation Xrotation Zrotation
                    JOINT rightIndexDistal
                    {
                      OFFSET -0.19008373999999884 -0.012503266380000655 -0.0026365778999999897
                      CHANNELS 3 Yrotation Xrotation Zrotation
                      End Site
                      {
                        OFFSET -0.19008373999999884 -0.012503266380000655 -0.0026365778999999897
                      }
                    }
                  }
                }
                JOINT rightMiddleProximal
                {
                  OFFSET -0.5834852037300005 0.05211639405060153 0.02307162440000001
                  CHANNELS 3 Yrotation Xrotation Zrotation
                  JOINT rightMiddleIntermediate
                  {
                    OFFSET -0.33880114510000003 -0.019952774050000954 0.0002455003561999819
                    CHANNELS 3 Yrotation Xrotation Zrotation
                    JOINT rightMiddleDistal
                    {
                      OFFSET -0.20675694929999955 -0.012273788999999091 0.00030209124000002766
                      CHANNELS 3 Yrotation Xrotation Zrotation
                      End Site
                      {
                        OFFSET -0.20675694929999955 -0.012273788999999091 0.00030209124000002766
                      }
                    }
                  }
                }
                JOINT rightLittleProximal
                {
                  OFFSET -0.5346811737299992 -0.011214256288399227 -0.24363941305000003
                  CHANNELS 3 Yrotation Xrotation Zrotation
                  JOINT rightLittleIntermediate
                  {
                    OFFSET -0.21757715980000092 -0.011771559690000988 0.01201554387
                    CHANNELS 3 Yrotation Xrotation Zrotation
                    JOINT rightLittleDistal
                    {
                      OFFSET -0.1475201849000004 -0.00822055339600003 0.006082065407000015
                      CHANNELS 3 Yrotation Xrotation Zrotation
                      End Site
                      {
                        OFFSET -0.1475201849000004 -0.00822055339600003 0.006082065407000015
                      }
                    }
                  }
                }
                JOINT rightRingProximal
                {
                  OFFSET -0.5800810755299999 0.027657985680600072 -0.12066365025000003
                  CHANNELS 3 Yrotation Xrotation Zrotation
                  JOINT rightRingIntermediate
                  {
                    OFFSET -0.26166445029999974 -0.013623118409999302 0.011164098990000045
                    CHANNELS 3 Yrotation Xrotation Zrotation
                    JOINT rightRingDistal
                    {
                      OFFSET -0.17666387530000027 -0.009072900100000503 0.005668185599999959
                      CHANNELS 3 Yrotation Xrotation Zrotation
                      End Site
                      {
                        OFFSET -0.17666387530000027 -0.009072900100000503 0.005668185599999959
                      }
                    }
                  }
                }
                JOINT rightThumbProximal
                {
                  OFFSET -0.10997596379000074 -0.09577489355940072 0.16989765924999997
                  CHANNELS 3 Yrotation Xrotation Zrotation
                  JOINT rightThumbIntermediate
                  {
                    OFFSET -0.31036620999999986 -0.08229339117999834 0.15440884469999996
                    CHANNELS 3 Yrotation Xrotation Zrotation
                    JOINT rightThumbDistal
                    {
                      OFFSET -0.21631306399999906 -0.08825326400000111 0.018656797720000014
                      CHANNELS 3 Yrotation Xrotation Zrotation
                      End Site
                      {
                        OFFSET -0.21631306399999906 -0.08825326400000111 0.018656797720000014
                      }
                    }
                  }
                }
              }
            }
          }
        }
      }
    }
  }
}
MOTION
Frames: 4
Frame Time: 0.03333333333333333
-0.011403745040297508 -4.1635173391601565 0.12176062911748886 -12.707718287531323 -24.490168975211322 5.9462610292951075 5.204893918071583 -59.05327329689186 10.438066850183676 129.45546819273991 84.862904203922 129.78290264260482 0.6653875968180163 -8.192737282935237 -5.259252985927247 -2.741728208730131e-7 0.000007522668695258492 4.308179887120858e-7 -9.498280953116556 -64.37400826858223 -0.2793137123447482 -4.64842087244921 85.69415670325358 -4.578747795839402 -0.0835930432843297 -0.2480060104236444 -6.802071415074877 0.000004879704088274631 0.000005984677841490486 -0.000002357057473113459 -2.645921195552164 6.741100366503384 -1.6947880347997237 -7.63182021171297 27.665646286007306 -0.04940350615026112 0 0 0 1.828879111475626 1.0080396881953042 -11.888900624401101 -35.00359475943942 -7.902640736092365 -56.59310083097511 -46.64707186392871 0.2320444652740608 0.5381857800816641 20.810818420234384 39.454235422330726 37.48134252701267 1.2547954864869586 0.1290327078159462 -11.743112065421148 0.5654508316840161 0.02597934576985859 -5.262643449394782 0.2830167147280541 0.00649398704587036 -2.6313537009074164 1.2531194239142451 0.12868335342855547 -11.727095056132647 0.5671648675346178 0.026136381773576668 -5.27864750498256 0.28301738173059077 0.006499654552118118 -2.63136265607833 5.234046174903344 0.9385956686060485 -11.248032250234141 -3.4953088138376827 0.014287100037759728 -5.720183045835663 0.2830199430203308 0.006493996634148675 -2.631360523894791 1.2547954864869586 0.12903269447569912 -11.743112065421148 0.5654508316840161 0.02597934576985859 -5.262643449394782 0.2830167147280541 0.006493986628988695 -2.6313537009074164 -5.01269207169288 1.6137166095200328 -0.362196485290349 19.59684816686393 6.395952311299246 -5.953559110455468 7.444693545394266 0.5184705673324712 -1.5158715230296835 12.16446254749838 4.681251746655689 -2.175314794375868 2.464935229146487 -6.929453178133761 4.866328116577903 0 0 0 0 0 0 0 0 0 4.87713892195572 0.528406772795747 11.814591162702422 8.630120510571563 32.42749684131721 49.23197742293716 113.81816979665311 1.0389743887847507 -0.6770945155855751 13.2446770191427 -15.748617728255796 -34.60419236153407 -3.507778363432127 1.0803387927869326 34.226654546809236 -1.3936840392134995 0.15782011133500953 12.920075924422964 -0.7012882063018928 0.03958373749365117 6.460510039253945 -3.507778363432127 1.0803388995276124 34.226654546809236 -1.3936840392134995 0.15782009799474572 12.920075924422964 -0.7012882063018928 0.03958373749365117 6.460510039253945 -3.507786247444055 1.0803340961970203 34.22666211636659 -1.3936801983539953 0.1578285690622795 12.92007426009951 -0.7012916211415418 0.03957748426721096 6.46051428101424 -3.507778363432127 1.0803387927869326 34.226654546809236 -1.3936840392134995 0.15782009799474572 12.920075924422964 -0.7012882063018928 0.03958373749365117 6.460510039253945 -10.533442293416499 21.30951458682877 11.99183533521543 -15.049072396145903 2.17022368819494 -1.1080332957029377 -3.0976888868760644 -2.4364289822359795 -2.0674725073538904
-0.010880901478230953 -4.163116795947266 0.12084686011075974 -12.711066587848073 -24.506511245557125 5.957214371381771 5.264151151535502 -59.03471659911213 10.39560473594754 129.45817790609703 84.88208660114262 129.78327557647196 0.6633425414450279 -8.188035404325458 -5.233698737916862 -2.741728208730131e-7 0.000007522668695258492 4.308179887120858e-7 -9.486343413967742 -64.35410109211772 -0.29956718810245875 -4.716789819985674 85.67935372360884 -4.647295429218066 -0.08360096904559942 -0.2502847805102627 -6.826319111750729 0.000004879704088274631 0.000005984677841490486 -0.000002357057473113459 -2.6647160684999274 6.762731762446881 -1.6946349031049577 -7.70999775616814 27.76008621109587 -0.058846759188361845 0 0 0 1.819297321841815 1.0095236700754089 -11.888544839212862 -35.000201384687294 -7.849255267090258 -56.518531946399506 -46.72064338367358 0.23273928265482446 0.5388611549553862 20.82657347615869 39.366561596802924 37.49313527928178 1.2547954864869586 0.1290327078159462 -11.743112065421148 0.5654508316840161 0.02597934576985859 -5.262643449394782 0.2830167147280541 0.00649398704587036 -2.6313537009074164 1.2531194239142451 0.12868335342855547 -11.727095056132647 0.5671648675346178 0.026136381773576668 -5.27864750498256 0.28301738173059077 0.006499654552118118 -2.63136265607833 5.234046174903344 0.9385956686060485 -11.248032250234141 -3.4953088138376827 0.014287100037759728 -5.720183045835663 0.2830199430203308 0.006493996634148675 -2.631360523894791 1.2547954864869586 0.12903269447569912 -11.743112065421148 0.5654508316840161 0.02597934576985859 -5.262643449394782 0.2830167147280541 0.006493986628988695 -2.6313537009074164 -5.01269207169288 1.6137166095200328 -0.362196485290349 19.59684816686393 6.395952311299246 -5.953559110455468 7.444693545394266 0.5184705673324712 -1.5158715230296835 11.977091501481173 4.410489010424512 -2.08044566440356 1.498751890112408 -7.437474906227466 5.70318632380088 0 0 0 0 0 0 0 0 0 4.8689157672938235 0.5286214526401926 11.814104551315237 8.781140006557663 32.31546837784874 49.19332978375999 113.70050191883371 1.0375925426973915 -0.6777152387370103 12.983916006705618 -14.40343614528318 -36.234987663510616 -3.507778363432127 1.0803387927869326 34.226654546809236 -1.3936840392134995 0.15782011133500953 12.920075924422964 -0.7012882063018928 0.03958373749365117 6.460510039253945 -3.507778363432127 1.0803388995276124 34.226654546809236 -1.3936840392134995 0.15782009799474572 12.920075924422964 -0.7012882063018928 0.03958373749365117 6.460510039253945 -3.507786247444055 1.0803340961970203 34.22666211636659 -1.3936801983539953 0.1578285690622795 12.92007426009951 -0.7012916211415418 0.03957748426721096 6.46051428101424 -3.507778363432127 1.0803387927869326 34.226654546809236 -1.3936840392134995 0.15782009799474572 12.920075924422964 -0.7012882063018928 0.03958373749365117 6.460510039253945 -10.533442293416499 21.30951458682877 11.99183533521543 -15.049072396145903 2.17022368819494 -1.1080332957029377 -3.0976888868760644 -2.4364289822359795 -2.0674725073538904
-0.009935183450579643 -4.1629584860107425 0.11898184567689896 -12.724771119837554 -24.541019201348067 5.990950863232948 5.397703909509207 -58.999370401592884 10.298379493534181 129.52654281947565 84.91638829317297 129.84720779882562 0.6593826773483376 -8.17993857341389 -5.184202392525264 -2.741728208730131e-7 0.000007522668695258492 4.308179887120858e-7 -9.440279001319917 -64.32241510082636 -0.35577619822427914 -4.938983563382826 85.65783002221546 -4.869604543065525 -0.08266424231117317 -0.2576693014140039 -6.878969384311341 0.000004879704088274631 0.000005984677841490486 -0.000002357057473113459 -2.69396512362976 6.802957963667961 -1.6836682959094034 -7.821959444498882 27.937734965078302 -0.061109686161840794 0 0 0 1.7925915293736105 1.0140717911013954 -11.886819167984111 -35.10721363025433 -7.722302726295182 -56.3395426533426 -46.82561208145909 0.23370872398114495 0.5397668913030617 21.09822217311035 39.12388078588338 37.57785458892789 1.2547954864869586 0.1290327078159462 -11.743112065421148 0.5654508316840161 0.02597934576985859 -5.262643449394782 0.2830167147280541 0.00649398704587036 -2.6313537009074164 1.2531194239142451 0.12868335342855547 -11.727095056132647 0.5671648675346178 0.026136381773576668 -5.27864750498256 0.28301738173059077 0.006499654552118118 -2.63136265607833 5.234046174903344 0.9385956686060485 -11.248032250234141 -3.4953088138376827 0.014287100037759728 -5.720183045835663 0.2830199430203308 0.006493996634148675 -2.631360523894791 1.2547954864869586 0.12903269447569912 -11.743112065421148 0.5654508316840161 0.02597934576985859 -5.262643449394782 0.2830167147280541 0.006493986628988695 -2.6313537009074164 -5.01269207169288 1.6137166095200328 -0.362196485290349 19.59684816686393 6.395952311299246 -5.953559110455468 7.444693545394266 0.5184705673324712 -1.5158715230296835 11.561453782363445 3.7004770602652286 -1.792703281664812 -0.4339254080965595 -8.54729494861545 7.118556435811068 0 0 0 0 0 0 0 0 0 4.8622725258126565 0.5288787162666904 11.814424410734485 9.053205706640565 32.25890840726097 49.22991496955374 113.77209543131535 1.0384532877869974 -0.6773402915267155 10.705760336067286 -10.775442496365283 -38.84582696758077 -3.507778363432127 1.0803387927869326 34.226654546809236 -1.3936840392134995 0.15782011133500953 12.920075924422964 -0.7012882063018928 0.03958373749365117 6.460510039253945 -3.507778363432127 1.0803388995276124 34.226654546809236 -1.3936840392134995 0.15782009799474572 12.920075924422964 -0.7012882063018928 0.03958373749365117 6.460510039253945 -3.507786247444055 1.0803340961970203 34.22666211636659 -1.3936801983539953 0.1578285690622795 12.92007426009951 -0.7012916211415418 0.03957748426721096 6.46051428101424 -3.507778363432127 1.0803387927869326 34.226654546809236 -1.3936840392134995 0.15782009799474572 12.920075924422964 -0.7012882063018928 0.03958373749365117 6.460510039253945 -10.533442293416499 21.30951458682877 11.99183533521543 -15.049072396145903 2.17022368819494 -1.1080332957029377 -3.0976888868760644 -2.4364289822359795 -2.0674725073538904
-0.00948555301874876 -4.163218362261963 0.11752185970544815 -12.744208439491565 -24.57569812598189 6.041104565196092 5.5511640558272966 -58.96164283647186 10.185594821209214 129.70120823317964 84.9515044899956 130.01756169390657 0.6557263383064313 -8.177929701560936 -5.1398500683563535 -2.741728208730131e-7 0.000007522668695258492 4.308179887120858e-7 -9.350441260016856 -64.30052905717443 -0.4504315361460162 -5.08171589833853 85.64827803563855 -5.012711707722158 -0.08091613008157188 -0.2638472181401186 -6.9186443079318565 0.000004879704088274631 0.000005984677841490486 -0.000002357057473113459 -2.730285211597956 6.811973338102244 -1.656825788766547 -7.94815804832277 27.99964681042777 0.05015707024471227 0 0 0 1.777529005777359 1.0171999755859034 -11.883909723758226 -35.33890173256776 -7.562861389574276 -56.20621795876758 -46.659030459272195 0.2321557769264952 0.5383039701257071 21.272694452111573 38.706957610350706 37.689624066226244 1.2547954864869586 0.1290327078159462 -11.743112065421148 0.5654508316840161 0.02597934576985859 -5.262643449394782 0.2830167147280541 0.00649398704587036 -2.6313537009074164 1.2531194239142451 0.12868335342855547 -11.727095056132647 0.5671648675346178 0.026136381773576668 -5.27864750498256 0.28301738173059077 0.006499654552118118 -2.63136265607833 5.234046174903344 0.9385956686060485 -11.248032250234141 -3.4953088138376827 0.014287100037759728 -5.720183045835663 0.2830199430203308 0.006493996634148675 -2.631360523894791 1.2547954864869586 0.12903269447569912 -11.743112065421148 0.5654508316840161 0.02597934576985859 -5.262643449394782 0.2830167147280541 0.006493986628988695 -2.6313537009074164 -5.01269207169288 1.6137166095200328 -0.362196485290349 19.59684816686393 6.395952311299246 -5.953559110455468 7.444693545394266 0.5184705673324712 -1.5158715230296835 11.162248576072905 2.944267466732434 -1.5326251665222248 -2.2601502469898835 -9.573590964782491 8.462463318543538 0 0 0 0 0 0 0 0 0 4.841656875403513 0.5306765736150907 11.816291326821624 9.438471046396705 32.341964853190596 49.28658919194775 113.84193742264235 1.0392546860796386 -0.6769595402055266 8.89999573021055 -7.0087996135521715 -41.56524007250351 -3.507778363432127 1.0803387927869326 34.226654546809236 -1.3936840392134995 0.15782011133500953 12.920075924422964 -0.7012882063018928 0.03958373749365117 6.460510039253945 -3.507778363432127 1.0803388995276124 34.226654546809236 -1.3936840392134995 0.15782009799474572 12.920075924422964 -0.7012882063018928 0.03958373749365117 6.460510039253945 -3.507786247444055 1.0803340961970203 34.22666211636659 -1.3936801983539953 0.1578285690622795 12.92007426009951 -0.7012916211415418 0.03957748426721096 6.46051428101424 -3.507778363432127 1.0803387927869326 34.226654546809236 -1.3936840392134995 0.15782009799474572 12.920075924422964 -0.7012882063018928 0.03958373749365117 6.460510039253945 -10.533442293416499 21.30951458682877 11.99183533521543 -15.049072396145903 2.17022368819494 -1.1080332957029377 -3.0976888868760644 -2.4364289822359795 -2.0674725073538904
